<svg xmlns="http://www.w3.org/2000/svg" width="256" height="256"><path fill="#999999" d="M121.657 207.507l-19.77-11.753c-2.117-1.117-2.304-1.986-.56-2.613 2.983-.99 5.967-2.35 8.952-4.1.49-.24.99-.19 1.49.19l15.29 8.96c.62.38 1.24.38 1.86 0l59.31-34.32c.62-.24.93-.74.93-1.49V93.73c0-.747-.32-1.308-.94-1.68l-59.31-34.32c-.624-.375-1.244-.375-1.864 0l-59.5 34.32c-.626.372-.934.933-.934 1.68v68.642c0 .745.31 1.243.934 1.49l16.418 9.516c4.35 1.863 7.8 2.052 10.35.557 2.546-1.49 3.82-3.66 3.82-6.524v-67.9c0-1.11.56-1.67 1.68-1.67h7.65c1.12 0 1.68.56 1.68 1.68v67.89c0 5.85-1.56 10.39-4.664 13.62-3.11 3.23-7.46 4.85-13.056 4.85-3.98 0-8.52-1.24-13.62-3.73l-15.67-8.952c-4.1-2.36-6.155-5.97-6.155-10.82V93.73c0-4.854 2.053-8.46 6.155-10.82l59.5-34.32c4.23-2.36 8.396-2.36 12.5 0l59.5 34.32c4.23 2.36 6.344 5.967 6.344 10.82v68.64c0 4.85-2.116 8.46-6.343 10.817l-59.31 34.323c-1.99 1.116-4.1 1.68-6.34 1.68-2.234 0-4.35-.564-6.34-1.68zm8.768-47.472c-4.355-1.308-7.586-3.11-9.7-5.41-2.116-2.3-3.638-4.632-4.57-6.993-.933-2.363-1.4-4.914-1.4-7.65 0-1.12.622-1.678 1.866-1.678h7.65c1 0 1.56.436 1.68 1.307.62 4.23 2.3 7.28 5.04 9.14 2.74 1.87 7.84 2.8 15.3 2.8 6.22 0 10.76-.77 13.62-2.33 2.86-1.55 4.29-3.95 4.29-7.18 0-1.49-.37-2.71-1.12-3.63-.74-.93-2.7-1.83-5.87-2.7-3.17-.87-7.86-1.61-14.08-2.24-8.95-.86-15.57-2.61-19.86-5.22-4.29-2.61-6.434-6.96-6.434-13.06 0-5.97 2.39-10.66 7.18-14.08 4.784-3.42 11.405-5.123 19.863-5.123 9.57 0 16.784 1.71 21.633 5.126 4.85 3.425 7.525 8.676 8.023 15.765.12.5 0 .936-.377 1.308-.374.37-.81.56-1.306.56h-7.65c-1 0-1.56-.433-1.68-1.305-.994-4.102-2.83-6.963-5.5-8.58-2.675-1.612-7.06-2.424-13.15-2.424-10.2 0-15.295 2.8-15.295 8.395 0 1.62.436 2.8 1.31 3.54.87.75 2.704 1.465 5.502 2.144 2.798.687 7.305 1.46 13.523 2.33 9.82 1.37 16.784 3.3 20.89 5.786s6.15 6.78 6.15 12.87c0 6.465-2.585 11.503-7.744 15.107-5.16 3.61-12.47 5.41-21.92 5.41-6.22 0-11.5-.65-15.85-1.96z"/></svg>