<svg xmlns="http://www.w3.org/2000/svg" width="256" height="256"><path fill="#999999" d="M127.463 61.317c4.7 0 8.865.333 12.494.996 3.627.666 6.515 1.508 8.66 2.53 2.148 1.02 3.987 2.17 5.52 3.447 1.533 1.28 2.58 2.557 3.144 3.833.56 1.278 1 2.43 1.31 3.45.31 1.02.41 1.892.31 2.604v30.353c0 3.272-.59 6.133-1.76 8.584-1.17 2.455-2.63 4.217-4.37 5.29-1.74 1.072-3.45 1.915-5.13 2.53-1.68.61-3.09.92-4.21.92l-1.84.15h-30.66c-3.47 0-6.46.667-8.97 1.994-2.5 1.328-4.29 2.913-5.36 4.753-1.07 1.84-1.91 3.68-2.53 5.52-.61 1.84-.97 3.43-1.07 4.76v17.94H81.1c-.458 0-1.3-.18-2.53-.53-1.225-.35-2.427-.89-3.6-1.61-1.177-.71-2.454-1.89-3.833-3.52-1.38-1.63-2.582-3.57-3.6-5.82-1.024-2.24-1.868-5.23-2.53-8.96-.666-3.73-.997-7.942-.997-12.643 0-3.68.22-7.05.68-10.12.46-3.064 1.09-5.644 1.91-7.74.81-2.094 1.73-3.985 2.76-5.673 1.02-1.686 2.12-2.99 3.29-3.906 1.17-.92 2.322-1.735 3.45-2.453 1.12-.713 2.22-1.17 3.293-1.38 1.074-.2 1.994-.38 2.76-.533.767-.153 1.404-.18 1.916-.08h43.99v-4.6H97.11V76.03c-.102-.407-.128-.943-.076-1.61.05-.662.537-1.84 1.457-3.524.92-1.69 2.33-3.17 4.22-4.447 1.89-1.28 4.98-2.46 9.28-3.53 4.29-1.08 9.46-1.61 15.49-1.61zm1.074 133.366c-4.703 0-8.868-.332-12.494-.994-3.63-.67-6.515-1.51-8.66-2.53-2.148-1.03-3.987-2.18-5.52-3.45-1.533-1.28-2.583-2.56-3.144-3.84-.57-1.28-1-2.43-1.31-3.45-.31-1.02-.41-1.89-.31-2.61v-30.35c0-3.27.58-6.14 1.76-8.59 1.17-2.46 2.63-4.22 4.37-5.29 1.73-1.07 3.45-1.92 5.13-2.53 1.68-.61 3.09-.97 4.21-1.07h32.5c3.47 0 6.46-.67 8.97-2 2.5-1.33 4.29-2.92 5.36-4.76 1.07-1.84 1.92-3.68 2.53-5.52.61-1.84.97-3.43 1.07-4.76v-17.9h11.89c.453 0 1.3.18 2.53.535 1.22.36 2.42.896 3.6 1.61 1.17.716 2.45 1.892 3.83 3.526 1.38 1.637 2.55 3.578 3.522 5.827.97 2.24 1.81 5.23 2.53 8.96.712 3.73 1.07 7.94 1.07 12.64s-.38 8.89-1.147 12.57c-.76 3.67-1.76 6.61-2.99 8.81-1.22 2.2-2.58 4.06-4.06 5.59-1.48 1.53-2.96 2.6-4.44 3.22-1.48.61-2.833 1.07-4.06 1.38-1.223.3-2.2.41-2.91.3h-44.46v4.6h30.97v15.33c.1.41.13.94.08 1.61-.054.66-.54 1.84-1.46 3.52-.92 1.68-2.32 3.16-4.21 4.44-1.895 1.27-4.98 2.45-9.276 3.52-4.29 1.08-9.45 1.614-15.48 1.614zm-14.18-121.41c-1.074-1.123-2.376-1.687-3.91-1.687s-2.835.563-3.91 1.688c-1.072 1.126-1.608 2.505-1.608 4.14 0 1.635.53 3.015 1.6 4.138 1.07 1.126 2.37 1.688 3.91 1.688s2.83-.562 3.91-1.688c1.07-1.123 1.61-2.503 1.61-4.14 0-1.633-.54-3.012-1.61-4.138zm27.287 109.453c1.073 1.126 2.375 1.688 3.908 1.688s2.836-.562 3.91-1.688c1.073-1.123 1.61-2.5 1.61-4.14 0-1.632-.537-3.012-1.61-4.138-1.073-1.123-2.377-1.686-3.91-1.686s-2.835.562-3.908 1.686c-1.075 1.126-1.61 2.506-1.61 4.14 0 1.637.535 3.015 1.61 4.138z"/></svg>