<svg xmlns="http://www.w3.org/2000/svg" width="256" height="256"><path fill="#92B4A7" d="M96.264 152.036l-.543 1.633c-.54 2.18-1.45 3.9-2.72 5.17-1.63 1.63-4.27 2.45-7.9 2.45-2.72 0-4.99-.64-6.81-1.91-1.82-1.27-3.72-3.54-5.72-6.81-.73-1.27-1.13-1.91-1.22-1.91-.09 0-2.95 1.73-8.58 5.174l-8.44 5.175.815 1.09c3.816 7.994 9.898 13.35 18.253 16.074 9.26 3.086 18.25 2.902 26.97-.545 9.624-4 15.16-11.895 16.615-23.7.18-1.27.275-14.44.275-39.5V76.85H96.27v75.183zm46.31-67.828c-5.085 5.085-7.626 11.533-7.626 19.338 0 11.442 5.264 20.342 15.797 26.697 2.54 1.635 6.9 3.725 13.077 6.266 7.626 3.26 12.347 5.9 14.165 7.9 3.085 3.26 3.72 6.81 1.906 10.62-.546.91-1.184 1.73-1.906 2.45-2.725 2.72-6.54 4.08-11.442 4.08-8.17 0-14.71-3.637-19.613-10.9-.73-1.27-1.136-1.908-1.225-1.908-.093 0-2.862 1.592-8.31 4.77-5.448 3.18-8.267 4.86-8.443 5.04-.183.18.088.814.817 1.904 6.36 10.895 16.44 17.25 30.24 19.067 4.54.723 9.08.723 13.62 0 8.53-1.09 15.26-3.997 20.16-8.716 5.27-5.08 7.9-11.803 7.9-20.157 0-5.08-1-9.623-2.99-13.62-1.09-2.54-2.722-4.903-4.902-7.083-4.18-4.174-11.534-8.53-22.062-13.075-7.45-3.083-11.987-5.534-13.622-7.352-1.816-1.997-2.633-4.358-2.45-7.08.177-2.18.905-3.995 2.178-5.45 1.997-2 4.72-3 8.17-3 3.81 0 6.9 1.274 9.26 3.816 1.27 1.085 2.22 2.175 2.86 3.266.64 1.09 1.048 1.636 1.23 1.636.363-.18 3.134-1.95 8.308-5.313 5.177-3.356 7.765-5.08 7.765-5.176 0-.09-.546-1.04-1.635-2.86-2.543-3.63-5.357-6.445-8.442-8.445-4.36-3.083-9.717-4.806-16.07-5.173-2.364-.18-4.63-.18-6.812 0-8.175.544-14.806 3.36-19.89 8.444z"/></svg>