<svg className="logo" xmlns="http://www.w3.org/2000/svg" width="300" height="300"><path fill="#F3F9D2" d="M186.604 279.16c0-4.187 6.833-20.983 15.185-37.324 8.35-16.34 17.89-39.574 21.2-51.63 5.94-21.665 8.01-56.85 3.69-63.06-2.74-3.942-16.415-13.452-19.346-13.452-1.18 0-5.08 9.88-8.668 21.957-3.59 12.08-7.774 24.33-9.3 27.22-1.524 2.89-2.772 6.79-2.772 8.65 0 1.867-3.407 10.17-7.57 18.46-4.165 8.29-7.57 17.01-7.57 19.37 0 2.36-2.777 7.07-6.168 10.46-5.31 5.31-6.76 5.57-10.444 1.89-3.684-3.684-3.4-6.743 2.05-22.065 3.48-9.784 8.86-21.407 11.957-25.83 3.097-4.42 5.63-9.78 5.63-11.91 0-4.513 11.02-37.57 15.746-47.232 3.727-7.62 1.415-16.104-4.388-16.104-4.998 0-13.14-25.737-11.98-37.858 1.245-12.992 11.764-32.7 23.552-44.126 8.524-8.264 10.88-9.21 14.803-5.95 6.687 5.55 5.81 10.132-3.663 19.096-25.425 24.063-27.31 36.973-8.113 55.614 5.772 5.607 11.546 10.19 12.832 10.19 3.62 0 26.667 21.984 30.18 28.787 4.59 8.89-2.76 61.967-12.16 87.82-18.497 50.86-44.694 90.155-44.694 67.037zM61.67 243.57c-11.04-6.193-14.435-19.056-13.897-52.647.594-37.108 4.893-57.407 13.423-63.38 3.315-2.323 13.887-5.676 23.494-7.452 30.94-5.72 57.677 4.31 60.74 22.78 2.76 16.63 2.556 60.26-.338 72.527-3.892 16.493-5.61 18.81-17.66 23.848-12.798 5.348-58.58 8.366-65.76 4.336zm27.786-45.83c.207-12.98-.436-14.383-6.585-14.345-20.31.123-22.89 4.42-18.52 30.875 1.42 8.59 3.73 11.865 9.81 13.928 7.14 2.42 8.32 1.733 11.51-6.687 1.96-5.16 3.66-15.85 3.79-23.77zm38.955 10.7c3.77-21.86 2.44-25.087-10.35-25.087-8.13 0-10.94 1.555-13.1 7.247-1.513 3.986-2.243 9.778-1.62 12.872 4.52 22.426 4.434 22.283 13.37 22.283 8.25 0 8.89-.944 11.71-17.314zm-38.62-47.8c.9-4.997 1.07-12.255.376-16.13-1.06-5.904-2.547-6.73-9.197-5.1-10.805 2.646-14.92 7.45-15.584 18.2-.86 13.875-.697 14.06 11.423 13.056 9.934-.823 11.547-2.07 12.982-10.026zm39.896-7.56c-1.1-16.687-2.99-18.77-14.89-16.39-9.605 1.922-10.13 4.064-7.21 29.433.154 1.35 5.39 2.032 11.64 1.515l11.356-.94-.896-13.616zm-55.43-46.296C66.76 101.062 59.26 84.45 60.69 76.738c.71-3.828 1.394-9.817 1.518-13.31.48-13.54 8.99-17.986 35.442-18.52 27.62-.558 33.806 2.668 41.8 21.795 10.175 24.357-8.948 44.05-42.6 43.867-9.77-.054-19.937-1.758-22.596-3.787zm46.807-18.076c10.406-10.708 1.495-25.48-17.2-28.514-23.04-3.74-36.47 7.814-28.757 24.74 3.15 6.916 5.093 7.56 22.86 7.56 11.55 0 20.904-1.534 23.093-3.786zM45.47 31.436c-3-4.873 3.077-11.193 12.452-12.95 5.614-1.055 22.9-1.994 38.402-2.087 15.505-.1 34.143-.21 41.417-.26 14.18-.1 21.127 5.49 14.68 11.81-3.96 3.885-104.69 7.163-106.952 3.48z"/></svg>