<svg xmlns="http://www.w3.org/2000/svg" width="256" height="256"><path fill="#92B4A7" d="M123.093 73.77c26.306-.503 49.402 3.84 69.29 13.027 4.91 2.143 9.565 4.846 13.972 8.118 4.405 3.272 8.37 7.145 11.895 11.61 3.523 4.47 5.853 9.223 6.987 14.256 1.132 5.04 1.005 10.51-.377 16.43-7.553 20.77-29.015 34.81-64.382 42.11-10.196 1.77-20.234 2.74-30.115 2.93-9.882.19-19.824-.44-29.83-1.89-10.007-1.44-19.762-4.09-29.266-7.93-9.504-3.84-18.096-8.71-25.77-14.63-7.807-5.66-12.715-13.4-14.728-23.22-2.02-9.814-.07-18.69 5.85-26.62 16.36-20.9 45.18-32.29 86.47-34.18zm2.643 13.215c-16.992.377-32.54 2.96-46.635 7.74-24.92 9.19-36.81 21.212-35.68 36.063 1.01 3.902 2.74 7.522 5.19 10.856 2.46 3.336 5.13 6.106 8.03 8.306 2.9 2.204 6.45 4.313 10.67 6.326 4.22 2.015 7.96 3.587 11.24 4.72 3.27 1.132 7.05 2.33 11.33 3.588 12.71 2.77 25.236 4.28 37.57 4.53 12.338.255 24.92-1.227 37.76-4.436 12.84-3.212 24.36-8.275 34.55-15.2 6.297-3.9 10.35-9.407 12.18-16.52 1.82-7.11.22-13.562-4.812-19.353-4.907-5.158-10.604-9.563-17.085-13.217-6.487-3.647-13.41-6.387-20.77-8.214-7.364-1.82-14.477-3.114-21.336-3.87-6.86-.753-14.253-1.192-22.183-1.32z"/><path fill="#92B4A7" d="M78.347 150.233l7.74-39.648h18.125c7.803.506 11.706 4.22 11.706 11.14 0 5.663-1.826 10.166-5.475 13.5-3.652 3.336-7.68 4.88-12.083 4.624h-8.873l-1.89 10.38h-9.25zm13.216-17.746h5.853c2.643-.25 4.72-1.07 6.23-2.454 1.51-1.385 2.328-3.966 2.454-7.742 0-2.89-1.953-4.34-5.853-4.34h-6.23l-2.454 14.54zm21.524 7.363l7.74-39.648h9.25l-1.887 10.384h8.875c3.65.255 6.292 1.228 7.93 2.927 1.633 1.698 2.2 3.81 1.698 6.326l-3.398 20.01h-9.818l3.588-18.13c.25-1.39.218-2.36-.095-2.93-.316-.57-1.292-.85-2.927-.85h-7.363l-4.343 21.9h-9.25zm30.775 10.383l7.74-39.648h18.125c7.803.506 11.706 4.22 11.706 11.14 0 5.663-1.826 10.166-5.476 13.5-3.652 3.336-7.68 4.88-12.083 4.624H155l-1.89 10.38h-9.248zm13.216-17.746h5.853c2.65-.25 4.72-1.07 6.23-2.454 1.51-1.385 2.33-3.966 2.46-7.742 0-2.89-1.95-4.34-5.85-4.34h-6.23l-2.45 14.54z"/></svg>