<svg xmlns="http://www.w3.org/2000/svg" width="256" height="256"><path fill="#999999" d="M192.08 137.957c-6.21.033-11.59 1.524-16.1 3.747-1.648-3.292-3.317-6.188-3.598-8.34-.327-2.515-.706-4.014-.312-7.008.396-2.995 2.128-7.234 2.103-7.552-.025-.318-.39-1.843-3.97-1.87s-6.647.69-7.008 1.636c-.36.946-1.05 3.075-1.48 5.294-.627 3.25-7.15 14.833-10.856 20.894-1.22-2.365-2.25-4.45-2.46-6.1-.33-2.515-.71-4.014-.31-7.01.39-2.992 2.12-7.233 2.1-7.55-.03-.32-.39-1.844-3.97-1.87-3.59-.026-6.65.69-7.01 1.635-.36.946-.75 3.157-1.48 5.294-.74 2.14-9.41 21.463-11.68 26.473-1.16 2.552-2.17 4.602-2.88 6.003 0-.004-.01-.008-.01-.008l-.12.25c-.61 1.192-.97 1.852-.97 1.852l.01.024c-.48.88-1 1.69-1.26 1.69-.18 0-.54-2.33.08-5.53 1.29-6.7 4.39-17.15 4.36-17.51-.02-.18.57-2-2.03-2.96-2.53-.92-3.43.62-3.66.63-.23.01-.39.55-.39.55s2.81-11.75-5.37-11.75c-5.12 0-12.22 5.6-15.71 10.68-2.21 1.21-6.93 3.78-11.93 6.53l-5.75 3.17-.39-.42c-9.93-10.59-28.29-18.09-27.51-32.33.28-5.18 2.08-18.81 35.27-35.35 27.18-13.55 48.95-9.82 52.71-1.56 5.37 11.81-11.63 33.74-39.87 36.91-10.76 1.21-16.42-2.96-17.83-4.51-1.49-1.63-1.71-1.71-2.26-1.4-.9.5-.33 1.94 0 2.8.84 2.2 4.3 6.09 10.2 8.02 5.18 1.71 17.81 2.64 33.09-3.27 17.1-6.61 30.46-25.02 26.54-40.41-3.99-15.64-29.94-20.79-54.49-12.06C81.27 70.85 65.45 79 54.08 89.64c-13.52 12.64-15.68 23.65-14.79 28.25 3.157 16.347 25.69 26.993 34.71 34.88l-1.24.69c-4.52 2.236-21.7 11.225-25.996 20.722-4.873 10.774.776 18.5 4.516 19.544 11.58 3.228 23.48-2.572 29.87-12.103 6.39-9.53 5.61-21.94 2.67-27.605l-.12-.21c1.167-.69 2.36-1.393 3.54-2.086 2.3-1.35 4.56-2.61 6.52-3.68-1.095 3.01-1.9 6.61-2.32 11.81-.49 6.12 2.018 14.02 5.297 17.13 1.445 1.37 3.18 1.4 4.283 1.4 3.815 0 5.557-3.17 7.474-6.93 2.35-4.6 4.435-9.96 4.435-9.96s-2.62 14.48 4.52 14.48c2.6 0 5.21-3.37 6.38-5.09v.03l.2-.33c.27-.41.42-.67.42-.67l.016-.076c1.043-1.816 3.36-5.95 6.836-12.775 4.49-8.81 8.8-19.85 8.8-19.85s.4 2.7 1.714 7.166c.78 2.628 2.42 5.53 3.71 8.31-1.04 1.448-1.68 2.278-1.68 2.278l.02.047c-.83 1.103-1.764 2.296-2.74 3.46-3.542 4.22-7.764 9.04-8.33 10.43-.67 1.64-.51 2.845.78 3.815.94.71 2.61.82 4.36.7 3.18-.21 5.426-1 6.53-1.48 1.72-.61 3.73-1.568 5.616-2.95 3.477-2.56 5.57-6.216 5.37-11.06-.11-2.67-.96-5.32-2.04-7.817l.95-1.37c5.48-8.016 9.73-16.82 9.73-16.82s.4 2.7 1.716 7.16c.67 2.26 1.98 4.73 3.154 7.145-5.153 4.19-8.35 9.056-9.46 12.248-2.052 5.907-.444 8.58 2.57 9.19 1.365.277 3.294-.35 4.744-.963 1.8-.6 3.97-1.595 6-3.084 3.47-2.558 6.82-6.137 6.613-10.98-.09-2.205-.69-4.39-1.5-6.496 4.37-1.82 10.03-2.83 17.23-1.99 15.46 1.8 18.49 11.45 17.91 15.49-.58 4.03-3.82 6.26-4.9 6.93-1.085.67-1.415.9-1.324 1.4.14.72.64.69 1.56.54 1.28-.22 8.12-3.29 8.41-10.74.38-9.46-8.69-19.86-24.76-19.77M72.93 178.14c-5.12 5.58-12.27 7.69-15.34 5.92-3.31-1.92-2-10.15 4.29-16.07 3.83-3.61 8.774-6.94 12.05-8.99l3.18-1.91c.22-.127.35-.196.35-.196l-.004-.01.795-.472c2.29 8.434.07 15.86-5.3 21.72zm37.3-25.35c-1.782 4.34-5.514 15.46-7.785 14.87-1.95-.51-3.14-8.97-.39-17.29 1.38-4.19 4.333-9.196 6.07-11.14 2.793-3.123 5.87-4.145 6.62-2.88.952 1.616-3.398 13.705-4.516 16.43zm30.81 14.7c-.753.39-1.446.64-1.77.45-.234-.14.314-.66.314-.66s3.85-4.15 5.37-6.038c.88-1.1 1.904-2.4 3.02-3.86.01.144.013.29.013.43-.01 4.97-4.81 8.32-6.95 9.67zm23.74-5.41c-.56-.4-.47-1.7 1.386-5.74.723-1.59 2.39-4.26 5.27-6.81.336 1.05.54 2.054.534 2.99-.033 6.25-4.492 8.585-7.19 9.555z"/></svg>